{"title":"The Next Food Network Star S08E07 Meet the Press-ure x264","uid":7390595,"size":525359349,"categoryP":"video","categoryS":"tv_shows","magnet":"?xt=urn:btih:9cd415bb40f70058006b7575759b1830abfc33c7&amp;dn=The+Next+Food+Network+Star+S08E07+Meet+the+Press-ure+x264&amp;tr=udp%3A%2F%2Ftracker.openbittorrent.com%3A80&amp;tr=udp%3A%2F%2Fopen.demonii.com%3A1337&amp;tr=udp%3A%2F%2Ftracker.coppersurfer.tk%3A6969&amp;tr=udp%3A%2F%2Fexodus.desync.com%3A6969","seeders":0,"leechers":1,"uploader":"KaLaNco69","files":-1,"time":1340760720,"description":"Being a Food Network Star requires handling yourself with ease in the glare of the media spotlight.\n\nFinalists will be more exposed than ever as they film their own promotional video -- without the support of their producers!\n\nA panel of journalists grills each of the finalists with tough questions about their techniques, personal background and the show they want to bring to Food Network. Who can handle the journalists and who cracks under the pressure?\n\nFormat : MPEG-4\nFormat profile : Base Media\nCodec ID : isom\nFile size : 501 MiB\nDuration : 41mn 58s\nOverall bit rate mode : Variable\nOverall bit rate : 1 669 Kbps\n\n\nVideo\n\nID : 1\nFormat : AVC\nFormat/Info : Advanced Video Codec\nFormat profile : &lt;a class=&quot;__cf_email__&quot; href=&quot;/cdn-cgi/l/email-protection&quot; data-cfemail=&quot;5c1e3d2f39303532391c106f726c&quot;&gt;[email&amp;#160;protected]&lt;/a&gt;&lt;script cf-hash='f9e31' type=&quot;text/javascript&quot;&gt;\n/* &lt;![CDATA[ */!function(){try{var t=&quot;currentScript&quot;in document?document.currentScript:function(){for(var t=document.getElementsByTagName(&quot;script&quot;),e=t.length;e--;)if(t[e].getAttribute(&quot;cf-hash&quot;))return t[e]}();if(t&amp;&amp;t.previousSibling){var e,r,n,i,c=t.previousSibling,a=c.getAttribute(&quot;data-cfemail&quot;);if(a){for(e=&quot;&quot;,r=parseInt(a.substr(0,2),16),n=2;a.length-n;n+=2)i=parseInt(a.substr(n,2),16)^r,e+=String.fromCharCode(i);e=document.createTextNode(e),c.parentNode.replaceChild(e,c)}}}catch(u){}}();/* ]]&gt; */&lt;/script&gt;\nFormat settings, CABAC : No\nFormat settings, ReFrames : 1 frame\nFormat settings, GOP : M=1, N=12\nCodec ID : avc1\nCodec ID/Info : Advanced Video Coding\nDuration : 41mn 58s\nBit rate : 1 512 Kbps\nWidth : 640 pixels\nHeight : 360 pixels\nDisplay aspect ratio : 16:9\nFrame rate mode : Constant\nFrame rate : 29.970 fps\nColor space : YUV\nChroma subsampling : 4:2:0\nBit depth : 8 bits\nScan type : Progressive\nBits/(Pixel*Frame) : 0.219\nStream size : 454 MiB (91%)\n\n\nAudio\n\nID : 2\nFormat : AAC\nFormat/Info : Advanced Audio Codec\nFormat profile : LC\nCodec ID : 40\nDuration : 41mn 58s\nBit rate mode : Variable\nBit rate : 152 Kbps\nChannel(s) : 2 channels\nChannel positions : Front: L R\nSampling rate : 44.1 KHz\nCompression mode : Lossy\nStream size : 45.6 MiB (9%)","torrent":{"xt":"urn:btih:9cd415bb40f70058006b7575759b1830abfc33c7","amp;dn":"The+Next+Food+Network+Star+S08E07+Meet+the+Press-ure+x264","amp;tr":["udp%3A%2F%2Ftracker.openbittorrent.com%3A80","udp%3A%2F%2Fopen.demonii.com%3A1337","udp%3A%2F%2Ftracker.coppersurfer.tk%3A6969","udp%3A%2F%2Fexodus.desync.com%3A6969"],"infoHash":"9cd415bb40f70058006b7575759b1830abfc33c7","infoHashBuffer":{"type":"Buffer","data":[156,212,21,187,64,247,0,88,0,107,117,117,117,155,24,48,171,252,51,199]},"announce":[],"urlList":[]}}